<svg xmlns="http://www.w3.org/2000/svg" width="186" height="38" viewBox="0 0 186 38" fill="none">
  <path d="M183.233 19.9271C181.652 19.1093 179.322 18.4277 177.949 18.4277C177.034 18.4277 176.701 18.6094 176.701 19.0184C176.701 19.518 177.408 19.6997 178.948 20.0635C183.025 20.9722 185.106 23.1532 185.106 26.561C185.106 31.0592 181.819 33.9219 174.746 33.9219C171.584 33.9219 167.423 33.4676 164.968 32.4225L164.802 24.4502C166.549 25.4497 170.502 26.6063 171.958 26.6063C172.79 26.6063 173.206 26.4702 173.206 25.9702C173.206 25.4251 172.457 25.2434 170.918 24.8799C166.841 23.9709 164.802 21.6991 164.802 18.2912C164.802 13.9291 168.089 11.0212 175.203 11.0212C178.116 11.0212 182.235 11.5211 184.523 12.3845L183.233 19.9271Z" fill="#FF66C4"/>
  <path d="M122.072 33.104L116.372 11.8392H126.566L127.939 20.5177C128.105 21.5628 128.438 23.7894 128.438 23.7894C128.438 23.7894 128.771 21.5628 128.938 20.5177L130.31 11.8392H140.504L134.804 33.104H122.072Z" fill="#FF66C4"/>
  <path d="M153.943 20.0633C153.943 18.7 153.402 17.9731 152.279 17.9731C151.155 17.9731 150.573 18.8365 150.49 20.1541L153.943 20.0633ZM150.656 24.6071C150.906 25.7883 152.154 26.5155 154.65 26.5155C156.772 26.5155 160.094 26.1622 162.133 25.2532L161.557 32.377C159.268 33.4221 156.398 33.9216 153.277 33.9216C145.455 33.9216 140.504 29.9686 140.504 22.6078C140.504 15.6104 145.122 11.0213 152.195 11.0213C158.769 11.0213 162.555 14.9287 162.555 20.3815C162.555 21.5174 162.472 23.3803 162.264 24.198L150.656 24.6071Z" fill="#FF66C4"/>
  <path d="M113.709 6.06791C113.348 6.07804 113.219 6.25808 113.152 6.32834C112.946 6.54451 112.693 6.79177 112.505 6.93161C110.519 8.41378 108.725 8.78162 107.278 8.51578C107.094 8.48167 106.917 8.42898 106.742 8.38371C106.116 8.22293 104.572 7.54636 103.858 7.18967C104.808 8.11518 106.243 9.13966 108.528 9.30889C108.758 9.32578 109.043 9.3349 109.479 9.2947C110.609 9.19134 112.304 8.73365 113.885 7.09712C114.321 6.64652 114.631 6.06487 114.631 6.06487C114.631 6.06487 113.849 6.06386 113.709 6.06791Z" fill="#FF66C4"/>
  <path d="M114.087 2.18197C113.959 2.0857 113.827 1.98234 113.691 1.87122C112.983 1.29159 112.109 0.632923 111.072 0.29143C109.405 -0.257797 107.387 -0.12066 105.475 1.48649C103.781 2.90988 103.179 5.98231 103.179 5.98231C103.179 5.98231 104.045 3.12403 107.349 2.56535C107.373 2.5613 107.397 2.5613 107.421 2.55792C107.75 2.8305 107.966 3.25779 107.966 3.74419C107.966 4.56837 107.354 5.23683 106.599 5.23683C106.212 5.23683 105.863 5.05916 105.615 4.7761C105.887 6.26165 107.088 7.38037 108.529 7.38037C110.17 7.38037 111.501 5.92691 111.501 4.13433C111.501 4.10933 111.498 4.08535 111.497 4.06035C112.054 4.4515 112.591 4.83319 113.125 5.09058C113.318 5.1838 113.686 5.33074 113.915 5.41045C116.808 6.41737 118.079 2.96055 118.079 2.96055C118.079 2.96055 116.636 4.09717 114.087 2.18197Z" fill="#FF66C4"/>
  <path d="M90.4695 7.10263V11.4036V32.5262V33.1646H101.179V32.5262V11.0786V6.72297L90.4695 7.10263Z" fill="#FF66C4"/>
  <path d="M103.915 33.1643V12.1843L114.167 11.8711V33.1643H103.915Z" fill="#FF66C4"/>
  <path d="M41.6619 19.6695C41.6619 18.3062 41.1209 17.5793 39.9975 17.5793C38.8742 17.5793 38.2918 18.4427 38.2086 19.7603L41.6619 19.6695ZM38.375 24.2133C38.6246 25.3945 39.8729 26.1217 42.3692 26.1217C44.491 26.1217 47.8132 25.7684 49.8517 24.8594L49.2758 31.9832C46.9873 33.0283 44.1167 33.5278 40.9963 33.5278C33.1741 33.5278 28.2229 29.5748 28.2229 22.214C28.2229 15.2166 32.8413 10.6275 39.9143 10.6275C46.4881 10.6275 50.2742 14.5349 50.2742 19.9877C50.2742 21.1236 50.191 22.9865 49.9832 23.8042L38.375 24.2133Z" fill="#FF66C4"/>
  <path d="M77.9608 33.1189V22.8045C77.9608 21.3051 77.4616 20.8961 76.7125 20.8961C76.2133 20.8961 75.7973 21.1687 75.4645 21.4868V33.1189H65.3125V22.8045C65.3125 21.3051 64.8132 20.8961 64.0644 20.8961C63.5649 20.8961 63.1489 21.1687 62.8161 21.4868V33.1189H52.6641V11.6325L62.6497 11.1725V13.4444C64.314 11.9906 66.2694 11.0363 68.3915 11.0363C71.0957 11.0363 73.176 12.2631 74.3411 14.3533C76.1719 12.354 78.5018 11.0363 81.0396 11.0363C85.4084 11.0363 88.1129 14.2625 88.1129 19.3058V33.1189H77.9608Z" fill="#FF66C4"/>
  <path d="M26.7743 10.1306V0.000270844L0 1.18183V6.86056V27.0539V32.8784L10.7097 32.5535V27.0539V22.3791H24.7926V12.8933H10.7097V10.1306H26.7743Z" fill="#FF66C4"/>
</svg>